<svg xmlns="http://www.w3.org/2000/svg" viewBox="0 0 900 320" role="img" aria-label="WOKE stamp mark">
  <defs>
    <linearGradient id="stampRed" x1="0%" y1="0%" x2="100%" y2="0%">
      <stop offset="0%" stop-color="#8f1424" />
      <stop offset="55%" stop-color="#cf1028" />
      <stop offset="100%" stop-color="#d94646" />
    </linearGradient>
    <mask id="distressMask">
      <rect width="900" height="320" fill="#fff" />
      <g fill="#000">
        <circle cx="90" cy="70" r="8" />
        <circle cx="148" cy="78" r="6" />
        <circle cx="226" cy="80" r="7" />
        <circle cx="688" cy="80" r="8" />
        <circle cx="746" cy="82" r="7" />
        <circle cx="808" cy="84" r="6" />
        <circle cx="128" cy="252" r="7" />
        <circle cx="205" cy="246" r="6" />
        <circle cx="744" cy="244" r="7" />
        <circle cx="792" cy="244" r="6" />
        <rect x="120" y="188" width="38" height="8" rx="4" />
        <rect x="166" y="196" width="44" height="8" rx="4" />
        <rect x="236" y="204" width="54" height="9" rx="4.5" />
        <rect x="514" y="70" width="48" height="8" rx="4" />
        <rect x="568" y="64" width="42" height="8" rx="4" />
        <rect x="622" y="56" width="58" height="8" rx="4" />
        <rect x="372" y="214" width="10" height="26" rx="5" />
        <rect x="432" y="222" width="10" height="30" rx="5" />
        <rect x="488" y="230" width="12" height="26" rx="6" />
        <rect x="536" y="224" width="10" height="28" rx="5" />
        <path d="M344 140c26-18 58-14 78 2 16 14 19 36 8 56-13 25-38 30-58 20-30-16-35-59-28-78z" />
        <path d="M126 140l8 60 22-2-9-58z" />
      </g>
    </mask>
  </defs>
  <g transform="translate(56 26) rotate(-7 392 132)" mask="url(#distressMask)">
    <rect x="8" y="8" width="784" height="248" rx="6" fill="none" stroke="url(#stampRed)" stroke-width="20" />
    <text
      x="402"
      y="202"
      text-anchor="middle"
      font-family="Arial Black, Impact, sans-serif"
      font-size="190"
      font-weight="900"
      letter-spacing="3"
      fill="url(#stampRed)"
    >
      WOKE
    </text>
  </g>
</svg>
